<?xml version="1.0" standalone="no"?>
<!DOCTYPE svg PUBLIC "-//W3C//DTD SVG 20010904//EN"
 "http://www.w3.org/TR/2001/REC-SVG-20010904/DTD/svg10.dtd">
<svg version="1.0" xmlns="http://www.w3.org/2000/svg"
 width="512.000000pt" height="512.000000pt" viewBox="0 0 512.000000 512.000000"
 preserveAspectRatio="xMidYMid meet">

<g transform="translate(0.000000,512.000000) scale(0.100000,-0.100000)"
fill="#000000" stroke="none">
<path d="M1538 4258 c-35 -12 -1506 -1591 -1525 -1635 -17 -43 -16 -80 5 -125
20 -43 1459 -1590 1505 -1619 31 -18 68 -19 1562 -19 1685 0 1579 -4 1715 62
99 48 209 162 259 269 22 46 44 111 50 143 8 41 11 434 11 1236 0 1139 -1
1179 -20 1254 -28 110 -74 190 -155 271 -81 81 -161 127 -271 155 -75 20 -115
20 -1593 19 -979 0 -1526 -4 -1543 -11z m3107 -333 c50 -25 105 -80 130 -130
20 -39 20 -70 23 -1214 3 -1307 7 -1227 -65 -1311 -20 -23 -60 -53 -87 -66
l-51 -24 -1465 0 -1465 0 -620 666 c-341 366 -630 677 -642 692 l-22 28 386
414 c212 228 502 540 645 693 l259 277 1467 -2 c1436 -3 1468 -3 1507 -23z"/>
<path d="M2540 3448 c-26 -13 -53 -37 -64 -57 -23 -41 -26 -114 -5 -152 12
-22 340 -382 561 -614 l57 -61 -309 -333 c-335 -360 -342 -370 -320 -450 27
-103 137 -153 227 -103 18 9 164 159 325 332 161 173 295 314 298 312 3 -2
135 -142 293 -313 159 -171 303 -319 320 -330 125 -76 288 74 221 203 -11 20
-152 178 -314 353 -162 174 -296 321 -298 325 -2 4 133 153 299 331 165 178
308 340 316 359 40 92 -23 203 -124 217 -84 11 -92 4 -415 -343 l-301 -325
-27 28 c-15 15 -148 157 -294 316 -147 158 -278 295 -292 303 -41 28 -103 28
-154 2z"/>
</g>
</svg>
